<?xml version="1.0" encoding="UTF-8" standalone="no"?><svg xmlns="http://www.w3.org/2000/svg" xmlns:xlink="http://www.w3.org/1999/xlink" contentStyleType="text/css" height="366px" preserveAspectRatio="none" style="width:393px;height:366px;background:#FFFFFF;" version="1.1" viewBox="0 0 393 366" width="393px" zoomAndPan="magnify"><defs/><g><!--class task.ManagePersonalImpl--><a href="ManagePersonalImpl.html" target="_top" title="ManagePersonalImpl.html" xlink:actuate="onRequest" xlink:href="ManagePersonalImpl.html" xlink:show="new" xlink:title="ManagePersonalImpl.html" xlink:type="simple"><g id="elem_task.ManagePersonalImpl"><rect codeLine="5" fill="#F1F1F1" height="145.1953" id="task.ManagePersonalImpl" rx="2.5" ry="2.5" style="stroke:#181818;stroke-width:0.5;" width="379" x="7" y="195.7"/><ellipse cx="120.75" cy="214.8328" fill="#ADD1B2" rx="11" ry="11" style="stroke:#181818;stroke-width:1.0;"/><path d="M123.2231,220.9759 Q122.6421,221.2747 122.0029,221.4241 Q121.3638,221.5735 120.6582,221.5735 Q118.1514,221.5735 116.8315,219.9217 Q115.5117,218.2698 115.5117,215.1487 Q115.5117,212.0193 116.8315,210.3675 Q118.1514,208.7156 120.6582,208.7156 Q121.3638,208.7156 122.0112,208.865 Q122.6587,209.0145 123.2231,209.3133 L123.2231,212.0359 Q122.5923,211.4549 121.9988,211.1851 Q121.4053,210.9153 120.7744,210.9153 Q119.4297,210.9153 118.7449,211.982 Q118.0601,213.0486 118.0601,215.1487 Q118.0601,217.2405 118.7449,218.3072 Q119.4297,219.3738 120.7744,219.3738 Q121.4053,219.3738 121.9988,219.1041 Q122.5923,218.8343 123.2231,218.2532 Z " fill="#000000"/><text fill="#000000" font-family="sans-serif" font-size="14" lengthAdjust="spacing" textLength="143" x="141.25" y="214.2352">ManagePersonalImpl</text><text fill="#000000" font-family="sans-serif" font-size="10" lengthAdjust="spacing" textLength="21" x="202.25" y="226.8563">task</text><line style="stroke:#181818;stroke-width:0.5;" x1="8" x2="385" y1="233.9656" y2="233.9656"/><ellipse cx="18" cy="247.7098" fill="#84BE84" rx="3" ry="3" style="stroke:#038048;stroke-width:1.0;"/><text fill="#000000" font-family="sans-serif" font-size="14" lengthAdjust="spacing" textLength="217" x="27" y="251.5008">createSalesMan(SalesMan): void</text><ellipse cx="18" cy="264.198" fill="#84BE84" rx="3" ry="3" style="stroke:#038048;stroke-width:1.0;"/><text fill="#000000" font-family="sans-serif" font-size="14" lengthAdjust="spacing" textLength="169" x="27" y="267.9891">_dropAllSalesMan(): void</text><ellipse cx="18" cy="280.6863" fill="#84BE84" rx="3" ry="3" style="stroke:#038048;stroke-width:1.0;"/><text fill="#000000" font-family="sans-serif" font-size="14" lengthAdjust="spacing" textLength="353" x="27" y="284.4773">addPerformanceRecord(EvaluationRecord, int): void</text><ellipse cx="18" cy="297.1746" fill="#84BE84" rx="3" ry="3" style="stroke:#038048;stroke-width:1.0;"/><text fill="#000000" font-family="sans-serif" font-size="14" lengthAdjust="spacing" textLength="195" x="27" y="300.9656">readSalesMan(int): SalesMan</text><ellipse cx="18" cy="313.6629" fill="#84BE84" rx="3" ry="3" style="stroke:#038048;stroke-width:1.0;"/><text fill="#000000" font-family="sans-serif" font-size="14" lengthAdjust="spacing" textLength="320" x="27" y="317.4539">querySalesMan(String, String): List&lt;SalesMan&gt;</text><ellipse cx="18" cy="330.1512" fill="#84BE84" rx="3" ry="3" style="stroke:#038048;stroke-width:1.0;"/><text fill="#000000" font-family="sans-serif" font-size="14" lengthAdjust="spacing" textLength="312" x="27" y="333.9422">readEvaluationRecords(int): EvaluationRecord</text></g></a><!--class task.ManagePersonal--><a href="ManagePersonal.html" target="_top" title="ManagePersonal.html" xlink:actuate="onRequest" xlink:href="ManagePersonal.html" xlink:show="new" xlink:title="ManagePersonal.html" xlink:type="simple"><g id="elem_task.ManagePersonal"><rect codeLine="14" fill="#F1F1F1" height="128.707" id="task.ManagePersonal" rx="2.5" ry="2.5" style="stroke:#181818;stroke-width:0.5;" width="379" x="7" y="7"/><ellipse cx="135.75" cy="26.1328" fill="#B4A7E5" rx="11" ry="11" style="stroke:#181818;stroke-width:1.0;"/><path d="M132.1777,22.3979 L132.1777,20.2397 L139.5571,20.2397 L139.5571,22.3979 L137.0918,22.3979 L137.0918,30.4746 L139.5571,30.4746 L139.5571,32.6328 L132.1777,32.6328 L132.1777,30.4746 L134.6431,30.4746 L134.6431,22.3979 Z " fill="#000000"/><text fill="#000000" font-family="sans-serif" font-size="14" font-style="italic" lengthAdjust="spacing" textLength="113" x="156.25" y="25.5352">ManagePersonal</text><text fill="#000000" font-family="sans-serif" font-size="10" font-style="italic" lengthAdjust="spacing" textLength="21" x="202.25" y="38.1563">task</text><line style="stroke:#181818;stroke-width:0.5;" x1="8" x2="385" y1="45.2656" y2="45.2656"/><ellipse cx="18" cy="59.0098" fill="#84BE84" rx="3" ry="3" style="stroke:#038048;stroke-width:1.0;"/><text fill="#000000" font-family="sans-serif" font-size="14" font-style="italic" lengthAdjust="spacing" textLength="217" x="27" y="62.8008">createSalesMan(SalesMan): void</text><ellipse cx="18" cy="75.498" fill="#84BE84" rx="3" ry="3" style="stroke:#038048;stroke-width:1.0;"/><text fill="#000000" font-family="sans-serif" font-size="14" font-style="italic" lengthAdjust="spacing" textLength="353" x="27" y="79.2891">addPerformanceRecord(EvaluationRecord, int): void</text><ellipse cx="18" cy="91.9863" fill="#84BE84" rx="3" ry="3" style="stroke:#038048;stroke-width:1.0;"/><text fill="#000000" font-family="sans-serif" font-size="14" font-style="italic" lengthAdjust="spacing" textLength="195" x="27" y="95.7773">readSalesMan(int): SalesMan</text><ellipse cx="18" cy="108.4746" fill="#84BE84" rx="3" ry="3" style="stroke:#038048;stroke-width:1.0;"/><text fill="#000000" font-family="sans-serif" font-size="14" font-style="italic" lengthAdjust="spacing" textLength="320" x="27" y="112.2656">querySalesMan(String, String): List&lt;SalesMan&gt;</text><ellipse cx="18" cy="124.9629" fill="#84BE84" rx="3" ry="3" style="stroke:#038048;stroke-width:1.0;"/><text fill="#000000" font-family="sans-serif" font-size="14" font-style="italic" lengthAdjust="spacing" textLength="312" x="27" y="128.7539">readEvaluationRecords(int): EvaluationRecord</text></g></a><!--reverse link task.ManagePersonal to task.ManagePersonalImpl--><g id="link_task.ManagePersonal_task.ManagePersonalImpl"><path codeLine="22" d="M196.5,157.59 C196.5,170.14 196.5,182.97 196.5,195.22 " fill="none" id="task.ManagePersonal-backto-task.ManagePersonalImpl" style="stroke:#181818;stroke-width:1.0;stroke-dasharray:7.0,7.0;"/><polygon fill="none" points="189.5,157.7,196.5,137.7,203.5,157.7,189.5,157.7" style="stroke:#181818;stroke-width:1.0;"/></g><text fill="#888888" font-family="sans-serif" font-size="10" lengthAdjust="spacing" textLength="182" x="98.5" y="356.5633">UMLDoclet 2.1.0, PlantUML 1.2022.14</text><!--SRC=[dPDDQm8n48Rl_HL3eQ1K5YqzYGY5zb1Ga4fFLieq6JKqcsmpes2j_xrPrw_kLX3takITTpus3m40O19mc19dg6X86GOK7y1vHrSn33EZ2IZDP0aJGrPpMKr9PZxA6rrPP8Rh3fjlQhVkktrqEAK11VOExNEQsJUt3JQxWlnv3SYGRvAg5KQZgfZC9BNZCQms_VBlLWL2eI5QukYlxJRrDYoyqGVVkmu-Ux1sxwmuKElOQ-93YaxH2oaVTErfWNQEOhmhX0OO9vNKE8FU5ouCk-F1z3Mdi3mCAi6uQGEADIRq34jd5-x-hLsUWhTDolecQrtGY8xuDv7hII9dqgYGg59OuGTBG2Nhiu4Sfrn-yyTLpe5mxB-CHxdZ9MZ-k-JEJvASUWlRvqKvKPXudo-l_TwZLpO-uBkabJGRCB3e9AfmiuYfiM-j_Wi0]--></g></svg>