<?xml version="1.0" encoding="UTF-8" standalone="no"?><svg xmlns="http://www.w3.org/2000/svg" xmlns:xlink="http://www.w3.org/1999/xlink" contentStyleType="text/css" height="396px" preserveAspectRatio="none" style="width:901px;height:396px;background:#FFFFFF;" version="1.1" viewBox="0 0 901 396" width="901px" zoomAndPan="magnify"><defs/><g><!--cluster task--><g id="cluster_task"><path d="M8.5,6 L40.5,6 A3.75,3.75 0 0 1 43,8.5 L50,28.4883 L891.5,28.4883 A2.5,2.5 0 0 1 894,30.9883 L894,367.96 A2.5,2.5 0 0 1 891.5,370.46 L8.5,370.46 A2.5,2.5 0 0 1 6,367.96 L6,8.5 A2.5,2.5 0 0 1 8.5,6 " fill="none" style="stroke:#000000;stroke-width:1.5;"/><line style="stroke:#000000;stroke-width:1.5;" x1="6" x2="50" y1="28.4883" y2="28.4883"/><text fill="#000000" font-family="sans-serif" font-size="14" font-weight="bold" lengthAdjust="spacing" textLength="31" x="10" y="21.5352">task</text></g><!--class task.SalesMan--><a href="SalesMan.html" target="_top" title="SalesMan.html" xlink:actuate="onRequest" xlink:href="SalesMan.html" xlink:show="new" xlink:title="SalesMan.html" xlink:type="simple"><g id="elem_task.SalesMan"><rect codeLine="3" fill="#F1F1F1" height="64.4883" id="task.SalesMan" rx="2.5" ry="2.5" style="stroke:#181818;stroke-width:0.5;" width="239" x="68.5" y="41"/><ellipse cx="151.75" cy="57" fill="#ADD1B2" rx="11" ry="11" style="stroke:#181818;stroke-width:1.0;"/><path d="M154.2231,63.1431 Q153.6421,63.4419 153.0029,63.5913 Q152.3638,63.7407 151.6582,63.7407 Q149.1514,63.7407 147.8315,62.0889 Q146.5117,60.437 146.5117,57.3159 Q146.5117,54.1865 147.8315,52.5347 Q149.1514,50.8828 151.6582,50.8828 Q152.3638,50.8828 153.0112,51.0322 Q153.6587,51.1816 154.2231,51.4805 L154.2231,54.2031 Q153.5923,53.6221 152.9988,53.3523 Q152.4053,53.0825 151.7744,53.0825 Q150.4297,53.0825 149.7449,54.1492 Q149.0601,55.2158 149.0601,57.3159 Q149.0601,59.4077 149.7449,60.4744 Q150.4297,61.541 151.7744,61.541 Q152.4053,61.541 152.9988,61.2712 Q153.5923,61.0015 154.2231,60.4204 Z " fill="#000000"/><text fill="#000000" font-family="sans-serif" font-size="14" lengthAdjust="spacing" textLength="64" x="172.25" y="62.291">SalesMan</text><line style="stroke:#181818;stroke-width:0.5;" x1="69.5" x2="306.5" y1="73" y2="73"/><line style="stroke:#181818;stroke-width:0.5;" x1="69.5" x2="306.5" y1="81" y2="81"/><ellipse cx="79.5" cy="94.7441" fill="#84BE84" rx="3" ry="3" style="stroke:#038048;stroke-width:1.0;"/><text fill="#000000" font-family="sans-serif" font-size="14" lengthAdjust="spacing" textLength="213" x="88.5" y="98.5352">SalesMan(String, String, String)</text></g></a><!--class task.Order--><a href="Order.html" target="_top" title="Order.html" xlink:actuate="onRequest" xlink:href="Order.html" xlink:show="new" xlink:title="Order.html" xlink:type="simple"><g id="elem_task.Order"><rect codeLine="7" fill="#F1F1F1" height="64.4883" id="task.Order" rx="2.5" ry="2.5" style="stroke:#181818;stroke-width:0.5;" width="293" x="342.5" y="41"/><ellipse cx="464.75" cy="57" fill="#ADD1B2" rx="11" ry="11" style="stroke:#181818;stroke-width:1.0;"/><path d="M467.2231,63.1431 Q466.6421,63.4419 466.0029,63.5913 Q465.3638,63.7407 464.6582,63.7407 Q462.1514,63.7407 460.8315,62.0889 Q459.5117,60.437 459.5117,57.3159 Q459.5117,54.1865 460.8315,52.5347 Q462.1514,50.8828 464.6582,50.8828 Q465.3638,50.8828 466.0112,51.0322 Q466.6587,51.1816 467.2231,51.4805 L467.2231,54.2031 Q466.5923,53.6221 465.9988,53.3523 Q465.4053,53.0825 464.7744,53.0825 Q463.4297,53.0825 462.7449,54.1492 Q462.0601,55.2158 462.0601,57.3159 Q462.0601,59.4077 462.7449,60.4744 Q463.4297,61.541 464.7744,61.541 Q465.4053,61.541 465.9988,61.2712 Q466.5923,61.0015 467.2231,60.4204 Z " fill="#000000"/><text fill="#000000" font-family="sans-serif" font-size="14" lengthAdjust="spacing" textLength="40" x="485.25" y="62.291">Order</text><line style="stroke:#181818;stroke-width:0.5;" x1="343.5" x2="634.5" y1="73" y2="73"/><line style="stroke:#181818;stroke-width:0.5;" x1="343.5" x2="634.5" y1="81" y2="81"/><ellipse cx="353.5" cy="94.7441" fill="#84BE84" rx="3" ry="3" style="stroke:#038048;stroke-width:1.0;"/><text fill="#000000" font-family="sans-serif" font-size="14" lengthAdjust="spacing" textLength="267" x="362.5" y="98.5352">Order(String, String, int, int, int, String)</text></g></a><!--class task.ManagePersonal--><a href="ManagePersonal.html" target="_top" title="ManagePersonal.html" xlink:actuate="onRequest" xlink:href="ManagePersonal.html" xlink:show="new" xlink:title="ManagePersonal.html" xlink:type="simple"><g id="elem_task.ManagePersonal"><rect codeLine="11" fill="#F1F1F1" height="48" id="task.ManagePersonal" rx="2.5" ry="2.5" style="stroke:#181818;stroke-width:0.5;" width="145" x="670.5" y="49.24"/><ellipse cx="685.5" cy="65.24" fill="#B4A7E5" rx="11" ry="11" style="stroke:#181818;stroke-width:1.0;"/><path d="M681.9277,61.5051 L681.9277,59.3469 L689.3071,59.3469 L689.3071,61.5051 L686.8418,61.5051 L686.8418,69.5818 L689.3071,69.5818 L689.3071,71.74 L681.9277,71.74 L681.9277,69.5818 L684.3931,69.5818 L684.3931,61.5051 Z " fill="#000000"/><text fill="#000000" font-family="sans-serif" font-size="14" font-style="italic" lengthAdjust="spacing" textLength="113" x="699.5" y="70.531">ManagePersonal</text><line style="stroke:#181818;stroke-width:0.5;" x1="671.5" x2="814.5" y1="81.24" y2="81.24"/><line style="stroke:#181818;stroke-width:0.5;" x1="671.5" x2="814.5" y1="89.24" y2="89.24"/></g></a><!--class task.SocialPerfomanceRecord--><a href="SocialPerfomanceRecord.html" target="_top" title="SocialPerfomanceRecord.html" xlink:actuate="onRequest" xlink:href="SocialPerfomanceRecord.html" xlink:show="new" xlink:title="SocialPerfomanceRecord.html" xlink:type="simple"><g id="elem_task.SocialPerfomanceRecord"><rect codeLine="13" fill="#F1F1F1" height="64.4883" id="task.SocialPerfomanceRecord" rx="2.5" ry="2.5" style="stroke:#181818;stroke-width:0.5;" width="332" x="22" y="165.48"/><ellipse cx="99.25" cy="181.48" fill="#ADD1B2" rx="11" ry="11" style="stroke:#181818;stroke-width:1.0;"/><path d="M101.7231,187.6231 Q101.1421,187.9219 100.5029,188.0713 Q99.8638,188.2207 99.1582,188.2207 Q96.6514,188.2207 95.3315,186.5689 Q94.0117,184.917 94.0117,181.7959 Q94.0117,178.6665 95.3315,177.0147 Q96.6514,175.3628 99.1582,175.3628 Q99.8638,175.3628 100.5112,175.5122 Q101.1587,175.6616 101.7231,175.9605 L101.7231,178.6831 Q101.0923,178.1021 100.4988,177.8323 Q99.9053,177.5625 99.2744,177.5625 Q97.9297,177.5625 97.2449,178.6292 Q96.5601,179.6958 96.5601,181.7959 Q96.5601,183.8877 97.2449,184.9544 Q97.9297,186.021 99.2744,186.021 Q99.9053,186.021 100.4988,185.7512 Q101.0923,185.4815 101.7231,184.9004 Z " fill="#000000"/><text fill="#000000" font-family="sans-serif" font-size="14" lengthAdjust="spacing" textLength="169" x="119.75" y="186.771">SocialPerfomanceRecord</text><line style="stroke:#181818;stroke-width:0.5;" x1="23" x2="353" y1="197.48" y2="197.48"/><line style="stroke:#181818;stroke-width:0.5;" x1="23" x2="353" y1="205.48" y2="205.48"/><ellipse cx="33" cy="219.2241" fill="#84BE84" rx="3" ry="3" style="stroke:#038048;stroke-width:1.0;"/><text fill="#000000" font-family="sans-serif" font-size="14" lengthAdjust="spacing" textLength="306" x="42" y="223.0152">SocialPerfomanceRecord(SocialAttribute, int)</text></g></a><!--class task.OrderEvaluation--><a href="OrderEvaluation.html" target="_top" title="OrderEvaluation.html" xlink:actuate="onRequest" xlink:href="OrderEvaluation.html" xlink:show="new" xlink:title="OrderEvaluation.html" xlink:type="simple"><g id="elem_task.OrderEvaluation"><rect codeLine="17" fill="#F1F1F1" height="64.4883" id="task.OrderEvaluation" rx="2.5" ry="2.5" style="stroke:#181818;stroke-width:0.5;" width="213" x="388.5" y="165.48"/><ellipse cx="435.25" cy="181.48" fill="#ADD1B2" rx="11" ry="11" style="stroke:#181818;stroke-width:1.0;"/><path d="M437.7231,187.6231 Q437.1421,187.9219 436.5029,188.0713 Q435.8638,188.2207 435.1582,188.2207 Q432.6514,188.2207 431.3315,186.5689 Q430.0117,184.917 430.0117,181.7959 Q430.0117,178.6665 431.3315,177.0147 Q432.6514,175.3628 435.1582,175.3628 Q435.8638,175.3628 436.5112,175.5122 Q437.1587,175.6616 437.7231,175.9605 L437.7231,178.6831 Q437.0923,178.1021 436.4988,177.8323 Q435.9053,177.5625 435.2744,177.5625 Q433.9297,177.5625 433.2449,178.6292 Q432.5601,179.6958 432.5601,181.7959 Q432.5601,183.8877 433.2449,184.9544 Q433.9297,186.021 435.2744,186.021 Q435.9053,186.021 436.4988,185.7512 Q437.0923,185.4815 437.7231,184.9004 Z " fill="#000000"/><text fill="#000000" font-family="sans-serif" font-size="14" lengthAdjust="spacing" textLength="111" x="455.75" y="186.771">OrderEvaluation</text><line style="stroke:#181818;stroke-width:0.5;" x1="389.5" x2="600.5" y1="197.48" y2="197.48"/><line style="stroke:#181818;stroke-width:0.5;" x1="389.5" x2="600.5" y1="205.48" y2="205.48"/><ellipse cx="399.5" cy="219.2241" fill="#84BE84" rx="3" ry="3" style="stroke:#038048;stroke-width:1.0;"/><text fill="#000000" font-family="sans-serif" font-size="14" lengthAdjust="spacing" textLength="187" x="408.5" y="223.0152">OrderEvaluation(Order, int)</text></g></a><!--class task.App--><a href="App.html" target="_top" title="App.html" xlink:actuate="onRequest" xlink:href="App.html" xlink:show="new" xlink:title="App.html" xlink:type="simple"><g id="elem_task.App"><rect codeLine="21" fill="#F1F1F1" height="64.4883" id="task.App" rx="2.5" ry="2.5" style="stroke:#181818;stroke-width:0.5;" width="158" x="636" y="165.48"/><ellipse cx="696.75" cy="181.48" fill="#ADD1B2" rx="11" ry="11" style="stroke:#181818;stroke-width:1.0;"/><path d="M699.2231,187.6231 Q698.6421,187.9219 698.0029,188.0713 Q697.3638,188.2207 696.6582,188.2207 Q694.1514,188.2207 692.8315,186.5689 Q691.5117,184.917 691.5117,181.7959 Q691.5117,178.6665 692.8315,177.0147 Q694.1514,175.3628 696.6582,175.3628 Q697.3638,175.3628 698.0112,175.5122 Q698.6587,175.6616 699.2231,175.9605 L699.2231,178.6831 Q698.5923,178.1021 697.9988,177.8323 Q697.4053,177.5625 696.7744,177.5625 Q695.4297,177.5625 694.7449,178.6292 Q694.0601,179.6958 694.0601,181.7959 Q694.0601,183.8877 694.7449,184.9544 Q695.4297,186.021 696.7744,186.021 Q697.4053,186.021 697.9988,185.7512 Q698.5923,185.4815 699.2231,184.9004 Z " fill="#000000"/><text fill="#000000" font-family="sans-serif" font-size="14" lengthAdjust="spacing" textLength="28" x="717.25" y="186.771">App</text><line style="stroke:#181818;stroke-width:0.5;" x1="637" x2="793" y1="197.48" y2="197.48"/><line style="stroke:#181818;stroke-width:0.5;" x1="637" x2="793" y1="205.48" y2="205.48"/><ellipse cx="647" cy="219.2241" fill="#84BE84" rx="3" ry="3" style="stroke:#038048;stroke-width:1.0;"/><text fill="#000000" font-family="sans-serif" font-size="14" lengthAdjust="spacing" text-decoration="underline" textLength="132" x="656" y="223.0152">main(String[]): void</text></g></a><!--class task.MongoDB--><a href="MongoDB.html" target="_top" title="MongoDB.html" xlink:actuate="onRequest" xlink:href="MongoDB.html" xlink:show="new" xlink:title="MongoDB.html" xlink:type="simple"><g id="elem_task.MongoDB"><rect codeLine="25" fill="#F1F1F1" height="64.4883" id="task.MongoDB" rx="2.5" ry="2.5" style="stroke:#181818;stroke-width:0.5;" width="107" x="21.5" y="289.97"/><ellipse cx="40.55" cy="305.97" fill="#ADD1B2" rx="11" ry="11" style="stroke:#181818;stroke-width:1.0;"/><path d="M43.0231,312.1131 Q42.4421,312.4119 41.8029,312.5613 Q41.1638,312.7107 40.4582,312.7107 Q37.9514,312.7107 36.6315,311.0589 Q35.3117,309.407 35.3117,306.2859 Q35.3117,303.1565 36.6315,301.5047 Q37.9514,299.8528 40.4582,299.8528 Q41.1638,299.8528 41.8112,300.0022 Q42.4587,300.1516 43.0231,300.4505 L43.0231,303.1731 Q42.3923,302.5921 41.7988,302.3223 Q41.2053,302.0525 40.5744,302.0525 Q39.2297,302.0525 38.5449,303.1192 Q37.8601,304.1858 37.8601,306.2859 Q37.8601,308.3777 38.5449,309.4444 Q39.2297,310.511 40.5744,310.511 Q41.2053,310.511 41.7988,310.2412 Q42.3923,309.9715 43.0231,309.3904 Z " fill="#000000"/><text fill="#000000" font-family="sans-serif" font-size="14" lengthAdjust="spacing" textLength="66" x="55.45" y="311.261">MongoDB</text><line style="stroke:#181818;stroke-width:0.5;" x1="22.5" x2="127.5" y1="321.97" y2="321.97"/><line style="stroke:#181818;stroke-width:0.5;" x1="22.5" x2="127.5" y1="329.97" y2="329.97"/><ellipse cx="32.5" cy="343.7141" fill="#84BE84" rx="3" ry="3" style="stroke:#038048;stroke-width:1.0;"/><text fill="#000000" font-family="sans-serif" font-size="14" lengthAdjust="spacing" text-decoration="underline" textLength="81" x="41.5" y="347.5052">main(): void</text></g></a><!--class task.Record--><a href="Record.html" target="_top" title="Record.html" xlink:actuate="onRequest" xlink:href="Record.html" xlink:show="new" xlink:title="Record.html" xlink:type="simple"><g id="elem_task.Record"><rect codeLine="29" fill="#F1F1F1" height="64.4883" id="task.Record" rx="2.5" ry="2.5" style="stroke:#181818;stroke-width:0.5;" width="450" x="163" y="289.97"/><ellipse cx="359.75" cy="305.97" fill="#ADD1B2" rx="11" ry="11" style="stroke:#181818;stroke-width:1.0;"/><path d="M362.2231,312.1131 Q361.6421,312.4119 361.0029,312.5613 Q360.3638,312.7107 359.6582,312.7107 Q357.1514,312.7107 355.8315,311.0589 Q354.5117,309.407 354.5117,306.2859 Q354.5117,303.1565 355.8315,301.5047 Q357.1514,299.8528 359.6582,299.8528 Q360.3638,299.8528 361.0112,300.0022 Q361.6587,300.1516 362.2231,300.4505 L362.2231,303.1731 Q361.5923,302.5921 360.9988,302.3223 Q360.4053,302.0525 359.7744,302.0525 Q358.4297,302.0525 357.7449,303.1192 Q357.0601,304.1858 357.0601,306.2859 Q357.0601,308.3777 357.7449,309.4444 Q358.4297,310.511 359.7744,310.511 Q360.4053,310.511 360.9988,310.2412 Q361.5923,309.9715 362.2231,309.3904 Z " fill="#000000"/><text fill="#000000" font-family="sans-serif" font-size="14" lengthAdjust="spacing" textLength="48" x="380.25" y="311.261">Record</text><line style="stroke:#181818;stroke-width:0.5;" x1="164" x2="612" y1="321.97" y2="321.97"/><line style="stroke:#181818;stroke-width:0.5;" x1="164" x2="612" y1="329.97" y2="329.97"/><ellipse cx="174" cy="343.7141" fill="#84BE84" rx="3" ry="3" style="stroke:#038048;stroke-width:1.0;"/><text fill="#000000" font-family="sans-serif" font-size="14" lengthAdjust="spacing" textLength="424" x="183" y="347.5052">Record(SocialPerfomanceRecord, OrderEvaluation, int, int, int)</text></g></a><!--class task.SocialAttribute--><a href="SocialAttribute.html" target="_top" title="SocialAttribute.html" xlink:actuate="onRequest" xlink:href="SocialAttribute.html" xlink:show="new" xlink:title="SocialAttribute.html" xlink:type="simple"><g id="elem_task.SocialAttribute"><rect codeLine="33" fill="#F1F1F1" height="64.4883" id="task.SocialAttribute" rx="2.5" ry="2.5" style="stroke:#181818;stroke-width:0.5;" width="230" x="648" y="289.97"/><ellipse cx="708.25" cy="305.97" fill="#ADD1B2" rx="11" ry="11" style="stroke:#181818;stroke-width:1.0;"/><path d="M710.7231,312.1131 Q710.1421,312.4119 709.5029,312.5613 Q708.8638,312.7107 708.1582,312.7107 Q705.6514,312.7107 704.3315,311.0589 Q703.0117,309.407 703.0117,306.2859 Q703.0117,303.1565 704.3315,301.5047 Q705.6514,299.8528 708.1582,299.8528 Q708.8638,299.8528 709.5112,300.0022 Q710.1587,300.1516 710.7231,300.4505 L710.7231,303.1731 Q710.0923,302.5921 709.4988,302.3223 Q708.9053,302.0525 708.2744,302.0525 Q706.9297,302.0525 706.2449,303.1192 Q705.5601,304.1858 705.5601,306.2859 Q705.5601,308.3777 706.2449,309.4444 Q706.9297,310.511 708.2744,310.511 Q708.9053,310.511 709.4988,310.2412 Q710.0923,309.9715 710.7231,309.3904 Z " fill="#000000"/><text fill="#000000" font-family="sans-serif" font-size="14" lengthAdjust="spacing" textLength="101" x="728.75" y="311.261">SocialAttribute</text><line style="stroke:#181818;stroke-width:0.5;" x1="649" x2="877" y1="321.97" y2="321.97"/><line style="stroke:#181818;stroke-width:0.5;" x1="649" x2="877" y1="329.97" y2="329.97"/><ellipse cx="659" cy="343.7141" fill="#84BE84" rx="3" ry="3" style="stroke:#038048;stroke-width:1.0;"/><text fill="#000000" font-family="sans-serif" font-size="14" lengthAdjust="spacing" textLength="204" x="668" y="347.5052">SocialAttribute(String, int, int)</text></g></a><text fill="#888888" font-family="sans-serif" font-size="10" lengthAdjust="spacing" textLength="182" x="352.5" y="386.128">UMLDoclet 2.1.0, PlantUML 1.2022.14</text><!--SRC=[ZL8zRuCm4DtpAswf10f2RSTkgTAjg56ZJeZXQWorQco47POe_xqs0HBCLptuxBkdz-nt1m0WiA2gH491e_g5ysO3xI8SbO8ZSgeY5137tJ7yqGLF4eE5kxNjojvHLqpa0GoZtwClhiP7bTBA23HnXhsfZQYPqFVRWfAfqogp_pHFn9mUQAMaG6vaXubMV-I390ov0MMoG47e9oMoIgqhauKvZoR1tZMzq-RvtoTDcz-i-VLM8p-XPb9qpjqoInxUK5vpNnFRbQKHCFiqwLbfGqOki2sGTRsF4_y5QidIUTf8YbpkNwtzrzE_w5Tf-xOijc5WkzkDmFNN6RC5hvm-zjFHPnR7eaTvxdYF9Dj0g9rgoAIquIjwtql2gORdy2by3E30KMYJXOVQ3BVjkFy7]--></g></svg>