<?xml version="1.0" encoding="UTF-8" standalone="no"?><svg xmlns="http://www.w3.org/2000/svg" xmlns:xlink="http://www.w3.org/1999/xlink" contentStyleType="text/css" height="544px" preserveAspectRatio="none" style="width:1632px;height:544px;background:#FFFFFF;" version="1.1" viewBox="0 0 1632 544" width="1632px" zoomAndPan="magnify"><defs/><g><!--cluster task--><g id="cluster_task"><path d="M8.5,6 L40.5,6 A3.75,3.75 0 0 1 43,8.5 L50,28.4883 L1622.5,28.4883 A2.5,2.5 0 0 1 1625,30.9883 L1625,516.36 A2.5,2.5 0 0 1 1622.5,518.86 L8.5,518.86 A2.5,2.5 0 0 1 6,516.36 L6,8.5 A2.5,2.5 0 0 1 8.5,6 " fill="none" style="stroke:#000000;stroke-width:1.5;"/><line style="stroke:#000000;stroke-width:1.5;" x1="6" x2="50" y1="28.4883" y2="28.4883"/><text fill="#000000" font-family="sans-serif" font-size="14" font-weight="bold" lengthAdjust="spacing" textLength="31" x="10" y="21.5352">task</text></g><!--class task.SalesMan--><a href="SalesMan.html" target="_top" title="SalesMan.html" xlink:actuate="onRequest" xlink:href="SalesMan.html" xlink:show="new" xlink:title="SalesMan.html" xlink:type="simple"><g id="elem_task.SalesMan"><rect codeLine="3" fill="#F1F1F1" height="80.9766" id="task.SalesMan" rx="2.5" ry="2.5" style="stroke:#181818;stroke-width:0.5;" width="265" x="436.5" y="65.73"/><ellipse cx="532.75" cy="81.73" fill="#ADD1B2" rx="11" ry="11" style="stroke:#181818;stroke-width:1.0;"/><path d="M535.2231,87.8731 Q534.6421,88.1719 534.0029,88.3213 Q533.3638,88.4707 532.6582,88.4707 Q530.1514,88.4707 528.8315,86.8189 Q527.5117,85.167 527.5117,82.0459 Q527.5117,78.9165 528.8315,77.2647 Q530.1514,75.6128 532.6582,75.6128 Q533.3638,75.6128 534.0112,75.7622 Q534.6587,75.9116 535.2231,76.2105 L535.2231,78.9331 Q534.5923,78.3521 533.9988,78.0823 Q533.4053,77.8125 532.7744,77.8125 Q531.4297,77.8125 530.7449,78.8792 Q530.0601,79.9458 530.0601,82.0459 Q530.0601,84.1377 530.7449,85.2044 Q531.4297,86.271 532.7744,86.271 Q533.4053,86.271 533.9988,86.0012 Q534.5923,85.7315 535.2231,85.1504 Z " fill="#000000"/><text fill="#000000" font-family="sans-serif" font-size="14" lengthAdjust="spacing" textLength="64" x="553.25" y="87.021">SalesMan</text><line style="stroke:#181818;stroke-width:0.5;" x1="437.5" x2="700.5" y1="97.73" y2="97.73"/><line style="stroke:#181818;stroke-width:0.5;" x1="437.5" x2="700.5" y1="105.73" y2="105.73"/><ellipse cx="447.5" cy="119.4741" fill="#84BE84" rx="3" ry="3" style="stroke:#038048;stroke-width:1.0;"/><text fill="#000000" font-family="sans-serif" font-size="14" lengthAdjust="spacing" textLength="190" x="456.5" y="123.2652">SalesMan(String, String, int)</text><ellipse cx="447.5" cy="135.9624" fill="#84BE84" rx="3" ry="3" style="stroke:#038048;stroke-width:1.0;"/><text fill="#000000" font-family="sans-serif" font-size="14" lengthAdjust="spacing" textLength="239" x="456.5" y="139.7534">SalesMan(String, String, int, String)</text></g></a><!--class task.Order--><a href="Order.html" target="_top" title="Order.html" xlink:actuate="onRequest" xlink:href="Order.html" xlink:show="new" xlink:title="Order.html" xlink:type="simple"><g id="elem_task.Order"><rect codeLine="8" fill="#F1F1F1" height="64.4883" id="task.Order" rx="2.5" ry="2.5" style="stroke:#181818;stroke-width:0.5;" width="316" x="737" y="73.98"/><ellipse cx="870.75" cy="89.98" fill="#ADD1B2" rx="11" ry="11" style="stroke:#181818;stroke-width:1.0;"/><path d="M873.2231,96.1231 Q872.6421,96.4219 872.0029,96.5713 Q871.3638,96.7207 870.6582,96.7207 Q868.1514,96.7207 866.8315,95.0689 Q865.5117,93.417 865.5117,90.2959 Q865.5117,87.1665 866.8315,85.5147 Q868.1514,83.8628 870.6582,83.8628 Q871.3638,83.8628 872.0112,84.0122 Q872.6587,84.1616 873.2231,84.4605 L873.2231,87.1831 Q872.5923,86.6021 871.9988,86.3323 Q871.4053,86.0625 870.7744,86.0625 Q869.4297,86.0625 868.7449,87.1292 Q868.0601,88.1958 868.0601,90.2959 Q868.0601,92.3877 868.7449,93.4544 Q869.4297,94.521 870.7744,94.521 Q871.4053,94.521 871.9988,94.2512 Q872.5923,93.9815 873.2231,93.4004 Z " fill="#000000"/><text fill="#000000" font-family="sans-serif" font-size="14" lengthAdjust="spacing" textLength="40" x="891.25" y="95.271">Order</text><line style="stroke:#181818;stroke-width:0.5;" x1="738" x2="1052" y1="105.98" y2="105.98"/><line style="stroke:#181818;stroke-width:0.5;" x1="738" x2="1052" y1="113.98" y2="113.98"/><ellipse cx="748" cy="127.7241" fill="#84BE84" rx="3" ry="3" style="stroke:#038048;stroke-width:1.0;"/><text fill="#000000" font-family="sans-serif" font-size="14" lengthAdjust="spacing" textLength="290" x="757" y="131.5152">Order(String, String, String, int, int, String)</text></g></a><!--class task.EvaluationRecord--><a href="EvaluationRecord.html" target="_top" title="EvaluationRecord.html" xlink:actuate="onRequest" xlink:href="EvaluationRecord.html" xlink:show="new" xlink:title="EvaluationRecord.html" xlink:type="simple"><g id="elem_task.EvaluationRecord"><rect codeLine="12" fill="#F1F1F1" height="64.4883" id="task.EvaluationRecord" rx="2.5" ry="2.5" style="stroke:#181818;stroke-width:0.5;" width="521" x="1088.5" y="73.98"/><ellipse cx="1285.25" cy="89.98" fill="#ADD1B2" rx="11" ry="11" style="stroke:#181818;stroke-width:1.0;"/><path d="M1287.7231,96.1231 Q1287.1421,96.4219 1286.5029,96.5713 Q1285.8638,96.7207 1285.1582,96.7207 Q1282.6514,96.7207 1281.3315,95.0689 Q1280.0117,93.417 1280.0117,90.2959 Q1280.0117,87.1665 1281.3315,85.5147 Q1282.6514,83.8628 1285.1582,83.8628 Q1285.8638,83.8628 1286.5112,84.0122 Q1287.1587,84.1616 1287.7231,84.4605 L1287.7231,87.1831 Q1287.0923,86.6021 1286.4988,86.3323 Q1285.9053,86.0625 1285.2744,86.0625 Q1283.9297,86.0625 1283.2449,87.1292 Q1282.5601,88.1958 1282.5601,90.2959 Q1282.5601,92.3877 1283.2449,93.4544 Q1283.9297,94.521 1285.2744,94.521 Q1285.9053,94.521 1286.4988,94.2512 Q1287.0923,93.9815 1287.7231,93.4004 Z " fill="#000000"/><text fill="#000000" font-family="sans-serif" font-size="14" lengthAdjust="spacing" textLength="119" x="1305.75" y="95.271">EvaluationRecord</text><line style="stroke:#181818;stroke-width:0.5;" x1="1089.5" x2="1608.5" y1="105.98" y2="105.98"/><line style="stroke:#181818;stroke-width:0.5;" x1="1089.5" x2="1608.5" y1="113.98" y2="113.98"/><ellipse cx="1099.5" cy="127.7241" fill="#84BE84" rx="3" ry="3" style="stroke:#038048;stroke-width:1.0;"/><text fill="#000000" font-family="sans-serif" font-size="14" lengthAdjust="spacing" textLength="495" x="1108.5" y="131.5152">EvaluationRecord(SocialPerfomanceRecord, OrderEvaluation, int, int, int)</text></g></a><!--class task.ManagePersonal--><a href="ManagePersonal.html" target="_top" title="ManagePersonal.html" xlink:actuate="onRequest" xlink:href="ManagePersonal.html" xlink:show="new" xlink:title="ManagePersonal.html" xlink:type="simple"><g id="elem_task.ManagePersonal"><rect codeLine="16" fill="#F1F1F1" height="130.4414" id="task.ManagePersonal" rx="2.5" ry="2.5" style="stroke:#181818;stroke-width:0.5;" width="379" x="22.5" y="41"/><ellipse cx="151.25" cy="57" fill="#B4A7E5" rx="11" ry="11" style="stroke:#181818;stroke-width:1.0;"/><path d="M147.6777,53.2651 L147.6777,51.1069 L155.0571,51.1069 L155.0571,53.2651 L152.5918,53.2651 L152.5918,61.3418 L155.0571,61.3418 L155.0571,63.5 L147.6777,63.5 L147.6777,61.3418 L150.1431,61.3418 L150.1431,53.2651 Z " fill="#000000"/><text fill="#000000" font-family="sans-serif" font-size="14" font-style="italic" lengthAdjust="spacing" textLength="113" x="171.75" y="62.291">ManagePersonal</text><line style="stroke:#181818;stroke-width:0.5;" x1="23.5" x2="400.5" y1="73" y2="73"/><line style="stroke:#181818;stroke-width:0.5;" x1="23.5" x2="400.5" y1="81" y2="81"/><ellipse cx="33.5" cy="94.7441" fill="#84BE84" rx="3" ry="3" style="stroke:#038048;stroke-width:1.0;"/><text fill="#000000" font-family="sans-serif" font-size="14" font-style="italic" lengthAdjust="spacing" textLength="217" x="42.5" y="98.5352">createSalesMan(SalesMan): void</text><ellipse cx="33.5" cy="111.2324" fill="#84BE84" rx="3" ry="3" style="stroke:#038048;stroke-width:1.0;"/><text fill="#000000" font-family="sans-serif" font-size="14" font-style="italic" lengthAdjust="spacing" textLength="353" x="42.5" y="115.0234">addPerformanceRecord(EvaluationRecord, int): void</text><ellipse cx="33.5" cy="127.7207" fill="#84BE84" rx="3" ry="3" style="stroke:#038048;stroke-width:1.0;"/><text fill="#000000" font-family="sans-serif" font-size="14" font-style="italic" lengthAdjust="spacing" textLength="195" x="42.5" y="131.5117">readSalesMan(int): SalesMan</text><ellipse cx="33.5" cy="144.209" fill="#84BE84" rx="3" ry="3" style="stroke:#038048;stroke-width:1.0;"/><text fill="#000000" font-family="sans-serif" font-size="14" font-style="italic" lengthAdjust="spacing" textLength="320" x="42.5" y="148">querySalesMan(String, String): List&lt;SalesMan&gt;</text><ellipse cx="33.5" cy="160.6973" fill="#84BE84" rx="3" ry="3" style="stroke:#038048;stroke-width:1.0;"/><text fill="#000000" font-family="sans-serif" font-size="14" font-style="italic" lengthAdjust="spacing" textLength="312" x="42.5" y="164.4883">readEvaluationRecords(int): EvaluationRecord</text></g></a><!--class task.SocialPerfomanceRecord--><a href="SocialPerfomanceRecord.html" target="_top" title="SocialPerfomanceRecord.html" xlink:actuate="onRequest" xlink:href="SocialPerfomanceRecord.html" xlink:show="new" xlink:title="SocialPerfomanceRecord.html" xlink:type="simple"><g id="elem_task.SocialPerfomanceRecord"><rect codeLine="24" fill="#F1F1F1" height="64.4883" id="task.SocialPerfomanceRecord" rx="2.5" ry="2.5" style="stroke:#181818;stroke-width:0.5;" width="332" x="437" y="272.66"/><ellipse cx="514.25" cy="288.66" fill="#ADD1B2" rx="11" ry="11" style="stroke:#181818;stroke-width:1.0;"/><path d="M516.7231,294.8031 Q516.1421,295.1019 515.5029,295.2513 Q514.8638,295.4007 514.1582,295.4007 Q511.6514,295.4007 510.3315,293.7489 Q509.0117,292.097 509.0117,288.9759 Q509.0117,285.8465 510.3315,284.1947 Q511.6514,282.5428 514.1582,282.5428 Q514.8638,282.5428 515.5112,282.6922 Q516.1587,282.8416 516.7231,283.1405 L516.7231,285.8631 Q516.0923,285.2821 515.4988,285.0123 Q514.9053,284.7425 514.2744,284.7425 Q512.9297,284.7425 512.2449,285.8092 Q511.5601,286.8758 511.5601,288.9759 Q511.5601,291.0677 512.2449,292.1344 Q512.9297,293.201 514.2744,293.201 Q514.9053,293.201 515.4988,292.9312 Q516.0923,292.6615 516.7231,292.0804 Z " fill="#000000"/><text fill="#000000" font-family="sans-serif" font-size="14" lengthAdjust="spacing" textLength="169" x="534.75" y="293.951">SocialPerfomanceRecord</text><line style="stroke:#181818;stroke-width:0.5;" x1="438" x2="768" y1="304.66" y2="304.66"/><line style="stroke:#181818;stroke-width:0.5;" x1="438" x2="768" y1="312.66" y2="312.66"/><ellipse cx="448" cy="326.4041" fill="#84BE84" rx="3" ry="3" style="stroke:#038048;stroke-width:1.0;"/><text fill="#000000" font-family="sans-serif" font-size="14" lengthAdjust="spacing" textLength="306" x="457" y="330.1952">SocialPerfomanceRecord(SocialAttribute, int)</text></g></a><!--class task.OrderEvaluation--><a href="OrderEvaluation.html" target="_top" title="OrderEvaluation.html" xlink:actuate="onRequest" xlink:href="OrderEvaluation.html" xlink:show="new" xlink:title="OrderEvaluation.html" xlink:type="simple"><g id="elem_task.OrderEvaluation"><rect codeLine="28" fill="#F1F1F1" height="64.4883" id="task.OrderEvaluation" rx="2.5" ry="2.5" style="stroke:#181818;stroke-width:0.5;" width="213" x="803.5" y="272.66"/><ellipse cx="850.25" cy="288.66" fill="#ADD1B2" rx="11" ry="11" style="stroke:#181818;stroke-width:1.0;"/><path d="M852.7231,294.8031 Q852.1421,295.1019 851.5029,295.2513 Q850.8638,295.4007 850.1582,295.4007 Q847.6514,295.4007 846.3315,293.7489 Q845.0117,292.097 845.0117,288.9759 Q845.0117,285.8465 846.3315,284.1947 Q847.6514,282.5428 850.1582,282.5428 Q850.8638,282.5428 851.5112,282.6922 Q852.1587,282.8416 852.7231,283.1405 L852.7231,285.8631 Q852.0923,285.2821 851.4988,285.0123 Q850.9053,284.7425 850.2744,284.7425 Q848.9297,284.7425 848.2449,285.8092 Q847.5601,286.8758 847.5601,288.9759 Q847.5601,291.0677 848.2449,292.1344 Q848.9297,293.201 850.2744,293.201 Q850.9053,293.201 851.4988,292.9312 Q852.0923,292.6615 852.7231,292.0804 Z " fill="#000000"/><text fill="#000000" font-family="sans-serif" font-size="14" lengthAdjust="spacing" textLength="111" x="870.75" y="293.951">OrderEvaluation</text><line style="stroke:#181818;stroke-width:0.5;" x1="804.5" x2="1015.5" y1="304.66" y2="304.66"/><line style="stroke:#181818;stroke-width:0.5;" x1="804.5" x2="1015.5" y1="312.66" y2="312.66"/><ellipse cx="814.5" cy="326.4041" fill="#84BE84" rx="3" ry="3" style="stroke:#038048;stroke-width:1.0;"/><text fill="#000000" font-family="sans-serif" font-size="14" lengthAdjust="spacing" textLength="187" x="823.5" y="330.1952">OrderEvaluation(Order, int)</text></g></a><!--class task.App--><a href="App.html" target="_top" title="App.html" xlink:actuate="onRequest" xlink:href="App.html" xlink:show="new" xlink:title="App.html" xlink:type="simple"><g id="elem_task.App"><rect codeLine="32" fill="#F1F1F1" height="64.4883" id="task.App" rx="2.5" ry="2.5" style="stroke:#181818;stroke-width:0.5;" width="158" x="1051" y="272.66"/><ellipse cx="1111.75" cy="288.66" fill="#ADD1B2" rx="11" ry="11" style="stroke:#181818;stroke-width:1.0;"/><path d="M1114.2231,294.8031 Q1113.6421,295.1019 1113.0029,295.2513 Q1112.3638,295.4007 1111.6582,295.4007 Q1109.1514,295.4007 1107.8315,293.7489 Q1106.5117,292.097 1106.5117,288.9759 Q1106.5117,285.8465 1107.8315,284.1947 Q1109.1514,282.5428 1111.6582,282.5428 Q1112.3638,282.5428 1113.0112,282.6922 Q1113.6587,282.8416 1114.2231,283.1405 L1114.2231,285.8631 Q1113.5923,285.2821 1112.9988,285.0123 Q1112.4053,284.7425 1111.7744,284.7425 Q1110.4297,284.7425 1109.7449,285.8092 Q1109.0601,286.8758 1109.0601,288.9759 Q1109.0601,291.0677 1109.7449,292.1344 Q1110.4297,293.201 1111.7744,293.201 Q1112.4053,293.201 1112.9988,292.9312 Q1113.5923,292.6615 1114.2231,292.0804 Z " fill="#000000"/><text fill="#000000" font-family="sans-serif" font-size="14" lengthAdjust="spacing" textLength="28" x="1132.25" y="293.951">App</text><line style="stroke:#181818;stroke-width:0.5;" x1="1052" x2="1208" y1="304.66" y2="304.66"/><line style="stroke:#181818;stroke-width:0.5;" x1="1052" x2="1208" y1="312.66" y2="312.66"/><ellipse cx="1062" cy="326.4041" fill="#84BE84" rx="3" ry="3" style="stroke:#038048;stroke-width:1.0;"/><text fill="#000000" font-family="sans-serif" font-size="14" lengthAdjust="spacing" text-decoration="underline" textLength="132" x="1071" y="330.1952">main(String[]): void</text></g></a><!--class task.ManagePersonalImpl--><a href="ManagePersonalImpl.html" target="_top" title="ManagePersonalImpl.html" xlink:actuate="onRequest" xlink:href="ManagePersonalImpl.html" xlink:show="new" xlink:title="ManagePersonalImpl.html" xlink:type="simple"><g id="elem_task.ManagePersonalImpl"><rect codeLine="36" fill="#F1F1F1" height="146.9297" id="task.ManagePersonalImpl" rx="2.5" ry="2.5" style="stroke:#181818;stroke-width:0.5;" width="379" x="22.5" y="231.44"/><ellipse cx="136.25" cy="247.44" fill="#ADD1B2" rx="11" ry="11" style="stroke:#181818;stroke-width:1.0;"/><path d="M138.7231,253.5831 Q138.1421,253.8819 137.5029,254.0313 Q136.8638,254.1807 136.1582,254.1807 Q133.6514,254.1807 132.3315,252.5289 Q131.0117,250.877 131.0117,247.7559 Q131.0117,244.6265 132.3315,242.9747 Q133.6514,241.3228 136.1582,241.3228 Q136.8638,241.3228 137.5112,241.4722 Q138.1587,241.6216 138.7231,241.9205 L138.7231,244.6431 Q138.0923,244.0621 137.4988,243.7923 Q136.9053,243.5225 136.2744,243.5225 Q134.9297,243.5225 134.2449,244.5892 Q133.5601,245.6558 133.5601,247.7559 Q133.5601,249.8477 134.2449,250.9144 Q134.9297,251.981 136.2744,251.981 Q136.9053,251.981 137.4988,251.7112 Q138.0923,251.4415 138.7231,250.8604 Z " fill="#000000"/><text fill="#000000" font-family="sans-serif" font-size="14" lengthAdjust="spacing" textLength="143" x="156.75" y="252.731">ManagePersonalImpl</text><line style="stroke:#181818;stroke-width:0.5;" x1="23.5" x2="400.5" y1="263.44" y2="263.44"/><line style="stroke:#181818;stroke-width:0.5;" x1="23.5" x2="400.5" y1="271.44" y2="271.44"/><ellipse cx="33.5" cy="285.1841" fill="#84BE84" rx="3" ry="3" style="stroke:#038048;stroke-width:1.0;"/><text fill="#000000" font-family="sans-serif" font-size="14" lengthAdjust="spacing" textLength="217" x="42.5" y="288.9752">createSalesMan(SalesMan): void</text><ellipse cx="33.5" cy="301.6724" fill="#84BE84" rx="3" ry="3" style="stroke:#038048;stroke-width:1.0;"/><text fill="#000000" font-family="sans-serif" font-size="14" lengthAdjust="spacing" textLength="169" x="42.5" y="305.4634">_dropAllSalesMan(): void</text><ellipse cx="33.5" cy="318.1607" fill="#84BE84" rx="3" ry="3" style="stroke:#038048;stroke-width:1.0;"/><text fill="#000000" font-family="sans-serif" font-size="14" lengthAdjust="spacing" textLength="353" x="42.5" y="321.9517">addPerformanceRecord(EvaluationRecord, int): void</text><ellipse cx="33.5" cy="334.649" fill="#84BE84" rx="3" ry="3" style="stroke:#038048;stroke-width:1.0;"/><text fill="#000000" font-family="sans-serif" font-size="14" lengthAdjust="spacing" textLength="195" x="42.5" y="338.44">readSalesMan(int): SalesMan</text><ellipse cx="33.5" cy="351.1373" fill="#84BE84" rx="3" ry="3" style="stroke:#038048;stroke-width:1.0;"/><text fill="#000000" font-family="sans-serif" font-size="14" lengthAdjust="spacing" textLength="320" x="42.5" y="354.9283">querySalesMan(String, String): List&lt;SalesMan&gt;</text><ellipse cx="33.5" cy="367.6255" fill="#84BE84" rx="3" ry="3" style="stroke:#038048;stroke-width:1.0;"/><text fill="#000000" font-family="sans-serif" font-size="14" lengthAdjust="spacing" textLength="312" x="42.5" y="371.4166">readEvaluationRecords(int): EvaluationRecord</text></g></a><!--class task.SocialAttribute--><a href="SocialAttribute.html" target="_top" title="SocialAttribute.html" xlink:actuate="onRequest" xlink:href="SocialAttribute.html" xlink:show="new" xlink:title="SocialAttribute.html" xlink:type="simple"><g id="elem_task.SocialAttribute"><rect codeLine="45" fill="#F1F1F1" height="64.4883" id="task.SocialAttribute" rx="2.5" ry="2.5" style="stroke:#181818;stroke-width:0.5;" width="230" x="488" y="438.37"/><ellipse cx="548.25" cy="454.37" fill="#ADD1B2" rx="11" ry="11" style="stroke:#181818;stroke-width:1.0;"/><path d="M550.7231,460.5131 Q550.1421,460.8119 549.5029,460.9613 Q548.8638,461.1107 548.1582,461.1107 Q545.6514,461.1107 544.3315,459.4589 Q543.0117,457.807 543.0117,454.6859 Q543.0117,451.5565 544.3315,449.9047 Q545.6514,448.2528 548.1582,448.2528 Q548.8638,448.2528 549.5112,448.4022 Q550.1587,448.5516 550.7231,448.8505 L550.7231,451.5731 Q550.0923,450.9921 549.4988,450.7223 Q548.9053,450.4525 548.2744,450.4525 Q546.9297,450.4525 546.2449,451.5192 Q545.5601,452.5858 545.5601,454.6859 Q545.5601,456.7777 546.2449,457.8444 Q546.9297,458.911 548.2744,458.911 Q548.9053,458.911 549.4988,458.6412 Q550.0923,458.3715 550.7231,457.7904 Z " fill="#000000"/><text fill="#000000" font-family="sans-serif" font-size="14" lengthAdjust="spacing" textLength="101" x="568.75" y="459.661">SocialAttribute</text><line style="stroke:#181818;stroke-width:0.5;" x1="489" x2="717" y1="470.37" y2="470.37"/><line style="stroke:#181818;stroke-width:0.5;" x1="489" x2="717" y1="478.37" y2="478.37"/><ellipse cx="499" cy="492.1141" fill="#84BE84" rx="3" ry="3" style="stroke:#038048;stroke-width:1.0;"/><text fill="#000000" font-family="sans-serif" font-size="14" lengthAdjust="spacing" textLength="204" x="508" y="495.9052">SocialAttribute(String, int, int)</text></g></a><!--reverse link task.ManagePersonal to task.ManagePersonalImpl--><g id="link_task.ManagePersonal_task.ManagePersonalImpl"><path codeLine="49" d="M212,193.34 C212,205.91 212,218.75 212,231.03 " fill="none" id="task.ManagePersonal-backto-task.ManagePersonalImpl" style="stroke:#181818;stroke-width:1.0;stroke-dasharray:7.0,7.0;"/><polygon fill="none" points="205,193.41,212,173.41,219,193.41,205,193.41" style="stroke:#181818;stroke-width:1.0;"/></g><text fill="#888888" font-family="sans-serif" font-size="10" lengthAdjust="spacing" textLength="182" x="718" y="534.528">UMLDoclet 2.1.0, PlantUML 1.2022.14</text><!--SRC=[hLJVQy8m47xthxYNGKKfsnw738JjOQ1C9diI6RSqkhAqwP8e3EV_lkllDZRgS7reaijtTzybtmK08CQ8wmGP1uFw4tQz7XGV4wWrp55mFSKO5ejowd-OI2oNX8N6DoYtlRbHORmUGZc6iUcV3oqNjSlUvlIi0gw8K3Ows6Hx1_5RUSvBzhX5iK4JolY5Cwa2ockR71Hic3UNB4Gnuseb8umPpyt3l9uQtQJNEhi6Dx9JcFJQw1XnpIcebZ4AOjSsT7FRuRis2fdPmu0fZeRNLr9C-dUmbM7WTCCWo2fHZL8yk-IyW1EHA7zGfS_nvTBfyxNXwjiX8_AVXDgCoktxevbjohgWODlT2kc-rhHXEZTSxTC9BZGpDbJP-yPmjo8QhL5JBvkajXnhbnhbPUjJoSP9GWdexn2PDXICqJb769QNj5ZQSZW8snRmKvGSgZerEYhvWvm7Ru6IoLY82js9kapfPylx0at_gv0hhLKAhYn7fLkXFFkLxPIGzMwDVdo_u-Px3I_6qqSFLbAcm-jqyY2Pu0Pk_Hl_UWWpWR4XArnjAK0gulul]--></g></svg>